<?xml version='1.0' encoding='utf-8'?>
<svg xmlns="http://www.w3.org/2000/svg" width="1920" height="1080" viewBox="0 0 1920 1080" data-theme="light" data-semantic-intent="taxonomy_list" data-relation-type="taxonomy" data-site-visual-identity="signal-cobalt">
  <style>
        @font-face {
            font-family: 'Inter';
            src: url('assets/fonts/Inter-Regular.ttf') format('truetype');
            font-weight: 400;
            font-style: normal;
            font-display: swap;
        }
        @font-face {
            font-family: 'Inter';
            src: url('assets/fonts/Inter-Bold.ttf') format('truetype');
            font-weight: 600;
            font-style: normal;
            font-display: swap;
        }
        @font-face {
            font-family: 'Inter';
            src: url('assets/fonts/Inter-Bold.ttf') format('truetype');
            font-weight: 800;
            font-style: normal;
            font-display: swap;
        }
        
:root {
    --background: #f8fafc;
    --panel: #ffffff;
    --primary-text: #0f172a;
    --muted-text: #64748b;
    --inverse-text: #ffffff;
    --border: #e2e8f0;
    --shadow-color: #000000;
    --icon-pad-bg: #1e293b;
    --art-glow: #0891b2;
    --art-glow-opacity: 0.10;
    --art-sheen: #ffffff;
    --art-sheen-opacity: 0.34;
    --art-shadow: #0f172a;
    --art-shadow-opacity: 0.14;
    --art-muted-line: #94a3b8;
    --art-panel-tint: #f1f5f9;
    --semantic-risk: #b91c1c;
    --semantic-warning: #c2410c;
    --semantic-uncertain: #a16207;
    --semantic-evidence: #1d4ed8;
    --semantic-claim: #6d28d9;
    --semantic-positive: #15803d;
    --semantic-outcome: #0e7490;
    --font-family: 'Inter', 'Segoe UI', 'Kalam', Roboto, Helvetica, Arial, sans-serif;
    --radius-xl: 16px;
    --font-family-headline: 'Segoe UI Variable Display', 'Aptos Display', 'Inter', 'Segoe UI', Helvetica, Arial, sans-serif;
    --font-family-body: 'Segoe UI Variable Text', 'Aptos', 'Inter', 'Segoe UI', Helvetica, Arial, sans-serif;
    --font-heading: var(--font-family-headline);
    --font-body: var(--font-family-body);
    --font-size-h1: 64px;
    --font-size-h2: 42px;
    --font-size-h3: 29px;
    --font-size-body: 21px;
    --font-size-caption: 17px;
    --secondary-text: var(--muted-text);
    --panel-border: var(--border);
    --font-weight-normal: 400;
    --font-weight-medium: 500;
    --font-weight-semibold: 600;
    --font-weight-bold: 700;
    --spacing-gutter-pct: 0.07;
    --spacing-top-pct: 0.15;
    --spacing-bottom-pct: 0.07;
    --spacing-title-y-pct: 0.055;
    --accent-1: #1d4ed8;
    --accent-2: #2563eb;
    --accent-3: #4f46e5;
    --accent-4: #6d28d9;
    --accent-5: #0369a1;
    --accent-6: #c2410c;
}
:root[data-theme="dark"] {
    --background: #0f172a;
    --panel: #1e293b;
    --primary-text: #f1f5f9;
    --muted-text: #94a3b8;
    --inverse-text: #0f172a;
    --border: #334155;
    --shadow-color: #000000;
    --icon-pad-bg: #1e293b;
    --art-glow: #7dd3fc;
    --art-glow-opacity: 0.18;
    --art-sheen: #ffffff;
    --art-sheen-opacity: 0.18;
    --art-shadow: #000000;
    --art-shadow-opacity: 0.28;
    --art-muted-line: #64748b;
    --art-panel-tint: #1e293b;
    --semantic-risk: #f87171;
    --semantic-warning: #fb923c;
    --semantic-uncertain: #fbbf24;
    --semantic-evidence: #60a5fa;
    --semantic-claim: #c084fc;
    --semantic-positive: #4ade80;
    --semantic-outcome: #22d3ee;
    --accent-1: #93c5fd;
    --accent-2: #60a5fa;
    --accent-3: #818cf8;
    --accent-4: #a78bfa;
    --accent-5: #38bdf8;
    --accent-6: #fb923c;
}
:root[data-theme="light"] {
    --background: #f8fafc;
    --panel: #ffffff;
    --primary-text: #0f172a;
    --muted-text: #64748b;
    --inverse-text: #ffffff;
    --border: #e2e8f0;
    --shadow-color: #000000;
    --icon-pad-bg: #1e293b;
    --art-glow: #0891b2;
    --art-glow-opacity: 0.10;
    --art-sheen: #ffffff;
    --art-sheen-opacity: 0.34;
    --art-shadow: #0f172a;
    --art-shadow-opacity: 0.14;
    --art-muted-line: #94a3b8;
    --art-panel-tint: #f1f5f9;
    --semantic-risk: #b91c1c;
    --semantic-warning: #c2410c;
    --semantic-uncertain: #a16207;
    --semantic-evidence: #1d4ed8;
    --semantic-claim: #6d28d9;
    --semantic-positive: #15803d;
    --semantic-outcome: #0e7490;
    --accent-1: #1d4ed8;
    --accent-2: #2563eb;
    --accent-3: #4f46e5;
    --accent-4: #6d28d9;
    --accent-5: #0369a1;
    --accent-6: #c2410c;
}</style>
  <rect x="0" y="0" width="1.92E+3" height="1.08E+3" fill="#f8fafc" stroke="none" id="programmatic_background"/>
  <line id="HEADER_DECOR" x1="960.0" x2="1080.0" y1="135.0" y2="135.0" stroke="var(--accent-1)" stroke-width="6" stroke-linecap="round"/>
  <defs>
    <pattern id="svg71e8848d-napkin-hatch" patternUnits="userSpaceOnUse" width="12" height="12">
      <path d="M -3 12 L 12 -3 M 0 15 L 15 0" fill="none" stroke="var(--primary-text)" stroke-width="1" stroke-opacity="0.05"/>
    </pattern>
    <filter id="svg71e8848d-shadow" x="-30%" y="-30%" width="160%" height="160%">
      <feDropShadow dx="0" dy="2" stdDeviation="3" flood-color="#000000" flood-opacity="0.08"/>
      <feDropShadow dx="0" dy="6" stdDeviation="10" flood-color="#000000" flood-opacity="0.12"/>
    </filter>
    <marker id="svg71e8848d-arrowhead" markerWidth="10" markerHeight="10" refX="9" refY="5" orient="auto">
      <path d="M 0 0 L 10 5 L 0 10 Z" fill="var(--accent-1)"/>
    </marker>
    <filter id="svg71e8848d-text-glow" x="-20%" y="-20%" width="140%" height="140%">
      <feDropShadow dx="0" dy="0" stdDeviation="2" flood-color="#000000" flood-opacity="0.4"/>
    </filter>
    <radialGradient id="svg71e8848d-universal-edge-vignette" cx="50%" cy="50%" r="72%">
      <stop offset="0%" stop-color="var(--background)" stop-opacity="0"/>
      <stop offset="72%" stop-color="var(--background)" stop-opacity="0.12"/>
      <stop offset="100%" stop-color="var(--primary-text)" stop-opacity="0.08"/>
    </radialGradient>
    <linearGradient id="svg71e8848d-universal-surface-sheen" x1="0%" y1="0%" x2="100%" y2="100%">
      <stop offset="0%" stop-color="var(--art-sheen)" stop-opacity="var(--art-sheen-opacity)"/>
      <stop offset="46%" stop-color="var(--art-sheen)" stop-opacity="0.035"/>
      <stop offset="100%" stop-color="var(--art-panel-tint)" stop-opacity="0.14"/>
    </linearGradient>
    <radialGradient id="svg71e8848d-universal-icon-aura" cx="50%" cy="42%" r="64%">
      <stop offset="0%" stop-color="var(--art-glow)" stop-opacity="var(--art-glow-opacity)"/>
      <stop offset="100%" stop-color="var(--background)" stop-opacity="0"/>
    </radialGradient>
  </defs>
  <rect width="100%" height="100%" fill="var(--background)" id="CANVAS_BG"/>
  <rect width="100%" height="100%" fill="url(#svg71e8848d-napkin-hatch)"/>
  <rect id="UNIVERSAL_EDGE_VIGNETTE" width="100%" height="100%" fill="url(#svg71e8848d-universal-edge-vignette)" opacity="0.62"/>
  <text id="TITLE" x="960.0" y="59" text-anchor="middle" font-weight="700" font-size="72" fill="#0f172a" style="font-size: 69px; font-family: 'Segoe UI Variable Display', 'Aptos Display', 'Inter', 'Segoe UI', Helvetica, Arial, sans-serif; font-weight: 800; font-kerning: normal; font-feature-settings: &quot;kern&quot; 1, &quot;liga&quot; 1; letter-spacing:-1.2px;" data-final-font-size="69">
    <tspan x="960.0" dy="70.47px">VTOL Stability Challenges Near Obstacles</tspan>
  </text>
  <rect id="TITLE_FRAME" x="134" y="59" width="1652" height="103" fill="none"/>
  <g id="DIAGRAM_SCALER" transform="translate(28.8, 27.0) scale(0.97)">
    <path d="M 960 360 L 960 450" stroke="var(--muted-text)" stroke-width="3.0" fill="none" opacity="0.52"/>
    <path d="M 210.0 450 L 1710.0 450" stroke="var(--muted-text)" stroke-width="3.0" fill="none" opacity="0.52"/>
    <path d="M 210.0 450 L 210.0 570" stroke="var(--muted-text)" stroke-width="3.0" fill="none" opacity="0.52"/>
    <path d="M 693.3 450 L 693.3 570" stroke="var(--muted-text)" stroke-width="3.0" fill="none" opacity="0.52"/>
    <path d="M 1226.7 450 L 1226.7 570" stroke="var(--muted-text)" stroke-width="3.0" fill="none" opacity="0.52"/>
    <path d="M 1710.0 450 L 1710.0 570" stroke="var(--muted-text)" stroke-width="3.0" fill="none" opacity="0.52"/>
    <g transform="translate(960.0, 270.0)">
      <rect id="ITEM_1_BG" x="-210" y="-90" width="420" height="180" rx="24" fill="var(--panel)" fill-opacity="0.86" stroke="var(--primary-text)" stroke-width="2.6"/>
      <circle id="ITEM_1_PAD" cx="0" cy="40" r="42" fill="var(--icon-pad-bg)" stroke="var(--accent-1)" opacity="1" fill-opacity="0.9" stroke-width="2" stroke-opacity="0.72" data-badge-layer="pad"/>
      <circle id="ITEM_1_PAD_INNER" cx="0" cy="40" r="32.76" fill="var(--accent-1)" fill-opacity="0.12" stroke="none" data-badge-layer="tint"/>
      <circle cx="0" cy="40" r="33.6" fill="none" stroke="var(--accent-1)" stroke-width="3" stroke-dasharray="6 4" display="none" data-suppressed-decoration="redundant-badge-ring"/>
      <g id="ITEM_1_ICON" transform="translate(-36.0, 4.0)" data-icon-size="72" stroke-linecap="round" stroke-linejoin="round" data-badge-treatment="clean">
        <g transform="translate(-3.0508474576271194,-3.050847457627119) scale(3.2542372881355934)" vector-effect="non-scaling-stroke" stroke-width="2.58" stroke-linecap="round" stroke-linejoin="round" stroke-opacity="1.0">
          <path d="M18 12h2" vector-effect="non-scaling-stroke" fill="none" stroke="#f1f5f9"/>
          <path d="M18 16h2" vector-effect="non-scaling-stroke" fill="none" stroke="#f1f5f9"/>
          <path d="M18 20h2" vector-effect="non-scaling-stroke" fill="none" stroke="#f1f5f9"/>
          <path d="M18 4h2" vector-effect="non-scaling-stroke" fill="none" stroke="#f1f5f9"/>
          <path d="M18 8h2" vector-effect="non-scaling-stroke" fill="none" stroke="#f1f5f9"/>
          <path d="M4 12h2" vector-effect="non-scaling-stroke" fill="none" stroke="#f1f5f9"/>
          <path d="M4 16h2" vector-effect="non-scaling-stroke" fill="none" stroke="#f1f5f9"/>
          <path d="M4 20h2" vector-effect="non-scaling-stroke" fill="none" stroke="#f1f5f9"/>
          <path d="M4 4h2" vector-effect="non-scaling-stroke" fill="none" stroke="#f1f5f9"/>
          <path d="M4 8h2" vector-effect="non-scaling-stroke" fill="none" stroke="#f1f5f9"/>
          <path d="M8 2a2 2 0 0 0-2 2v16a2 2 0 0 0 2 2h8a2 2 0 0 0 2-2V4a2 2 0 0 0-2-2h-1.5c-.276 0-.494.227-.562.495a2 2 0 0 1-3.876 0C9.994 2.227 9.776 2 9.5 2z" vector-effect="non-scaling-stroke" fill="none" stroke="#f1f5f9"/>
        </g>
      </g>
      <text id="ITEM_1_HEAD" x="0.0" y="-80.0" text-anchor="middle" font-weight="bold" font-size="36" fill="var(--accent-1)" data-bg-id="ITEM_1_BG" fill-opacity="1.0" style="font-size: 31px; font-family: 'Segoe UI Variable Display', 'Aptos Display', 'Inter', 'Segoe UI', Helvetica, Arial, sans-serif; font-weight: 700; font-kerning: normal; font-feature-settings: &quot;kern&quot; 1, &quot;liga&quot; 1; letter-spacing:-0.4px;" data-final-font-size="31">
        <tspan x="0.0" dy="35.07px">Flight Control</tspan>
      </text>
      <rect id="ITEM_1_HEAD_FRAME" x="-180" y="-80" width="360" height="45" fill="none"/>
    </g>
    <g transform="translate(210.0, 720)">
      <rect id="ITEM_2_BG" x="-180.0" y="-150" width="360" height="390" rx="24" fill="var(--accent-2)" fill-opacity="1.0" stroke="var(--accent-1)" stroke-width="2.6"/>
      <text id="ITEM_2_HEAD" x="0.0" y="8.0" text-anchor="middle" font-weight="bold" font-size="30" fill="var(--inverse-text)" data-bg-id="ITEM_2_BG" fill-opacity="1.0" style="font-size: 31px; font-family: 'Segoe UI Variable Display', 'Aptos Display', 'Inter', 'Segoe UI', Helvetica, Arial, sans-serif; font-weight: 700; font-kerning: normal; font-feature-settings: &quot;kern&quot; 1, &quot;liga&quot; 1; letter-spacing:-0.4px;" data-final-font-size="31">
        <tspan x="0.0" dy="33.55px">Aerodynamic</tspan>
        <tspan x="0.0" dy="32.55px">Interference</tspan>
      </text>
      <rect id="ITEM_2_HEAD_FRAME" x="-150.0" y="8" width="300" height="70" fill="none"/>
      <text id="ITEM_2_BODY" x="0.0" y="82.0" text-anchor="middle" font-size="23" fill="var(--inverse-text)" opacity="0.94" data-bg-id="ITEM_2_BG" data-max-lines="5" style="font-size: 23px; font-family: 'Segoe UI Variable Text', 'Aptos', 'Inter', 'Segoe UI', Helvetica, Arial, sans-serif; font-weight: 400; font-kerning: normal; font-feature-settings: &quot;kern&quot; 1, &quot;liga&quot; 1;" data-final-font-size="23">
        <tspan x="0.0" dy="33.31px">Nearby terrain alters thrust</tspan>
        <tspan x="0.0" dy="26.45px">effectiveness and airflow patterns</tspan>
      </text>
      <rect id="ITEM_2_BODY_FRAME" x="-174" y="82" width="348" height="108" fill="none"/>
      <circle id="ITEM_2_PAD" cx="0" cy="-45.0" r="62" fill="var(--icon-pad-bg)" stroke="var(--accent-2)" stroke-width="2" stroke-opacity="0.72" opacity="1" fill-opacity="0.9" data-badge-layer="pad"/>
      <circle id="ITEM_2_PAD_INNER" cx="0" cy="-45.0" r="48.36" fill="var(--accent-2)" fill-opacity="0.12" stroke="none" data-badge-layer="tint"/>
      <circle cx="0" cy="-45.0" r="49.6" fill="none" stroke="var(--accent-1)" stroke-width="3" stroke-dasharray="6 4" display="none" data-suppressed-decoration="redundant-badge-ring"/>
      <g id="ITEM_2_ICON" transform="translate(-48.0, -93.0)" data-icon-size="96" stroke-linecap="round" stroke-linejoin="round" data-badge-treatment="clean">
        <g transform="translate(-7.268571428571428,-10.291071428571426) scale(3.454285714285714)">
          <path d="M8.97695 9.81822C7.68369 9.81822 7.53001 10.5467 7.61483 10.9109V25.3158L24.7324 27.2146L30.0002 22.5V15.0422L23.1876 8.26566L22.8596 8.02197L15.5002 9L12.4142 8.02197C12.2033 8.15625 11.951 8.32512 11.8094 8.46545C10.993 9.27463 10.3546 9.81822 8.97695 9.81822Z" fill="#8C5543"/>
          <path d="M13.6198 9.31063C13.035 9.08884 12.4462 8.80135 11.8037 8.47407C12.4581 7.81966 14.0595 6.21636 15.2299 5.03847C16.6928 3.5661 18.656 3.69821 19.9679 5.03847C20.2326 5.30884 20.5296 5.60931 20.8363 5.91774C18.5156 7.0625 16.3906 7.6875 13.6198 9.31063Z" fill="#CDC4D6"/>
          <path d="M13.1558 9.12228C14.1001 9.52955 15.0007 9.7862 16.0606 9.7862C17.6085 9.7862 18.8166 9.19163 19.4207 8.87073C20.0247 8.54982 21.0818 8.2006 21.9973 8.2006C22.7003 8.2006 23.0885 8.25855 23.2104 8.29102C22.8107 7.89374 22.362 7.44613 21.9279 7.00997C21.5508 6.63436 21.1458 6.22946 20.7593 5.84035C19.4543 4.68908 17.6172 4.64256 16.23 6.03871C15.2344 7.04072 13.9269 8.35058 13.1558 9.12228Z" fill="#F4F4F4"/>
          <path d="M5.96834 11.2402C5.07024 12.3299 2.95313 14.8594 2.00684 15.9879V22.5L16 27.8125L22.9724 25.3105L15.8325 18.1406C14.7667 17.0629 13.3627 16.2097 11.7162 16.2097C9.99483 16.2097 8.99195 14.7428 8.99195 13.0065C8.99195 10.9666 12.3886 10.1728 13.1604 9.12524C12.4433 8.81133 12.1057 8.64478 11.8209 8.46558C10.6252 9.68774 9.79822 9.78931 9.29321 9.78931C8.96166 9.78931 7.59646 9.61208 5.96834 11.2402Z" fill="#7D4533"/>
          <path d="M11.0125 23.0202C7.06082 21.6581 4.12549 21.9275 2 22.4664V29.9955H30V22.4609C26.8267 23.8679 23.4212 25.0261 20.0084 25.0261C16.5956 25.0261 14.9641 24.3824 11.0125 23.0202Z" fill="#00D26A"/>
        </g>
      </g>
    </g>
    <g transform="translate(693.3, 720)">
      <rect id="ITEM_3_BG" x="-180.0" y="-150" width="360" height="390" rx="24" fill="var(--accent-3)" fill-opacity="1.0" stroke="var(--accent-2)" stroke-width="2.6"/>
      <text id="ITEM_3_HEAD" x="0.0" y="8.0" text-anchor="middle" font-weight="bold" font-size="30" fill="var(--inverse-text)" data-bg-id="ITEM_3_BG" fill-opacity="1.0" style="font-size: 31px; font-family: 'Segoe UI Variable Display', 'Aptos Display', 'Inter', 'Segoe UI', Helvetica, Arial, sans-serif; font-weight: 700; font-kerning: normal; font-feature-settings: &quot;kern&quot; 1, &quot;liga&quot; 1; letter-spacing:-0.4px;" data-final-font-size="31">
        <tspan x="0.0" dy="49.82px">Pilot Workload</tspan>
      </text>
      <rect id="ITEM_3_HEAD_FRAME" x="-150.0" y="8" width="300" height="70" fill="none"/>
      <text id="ITEM_3_BODY" x="0.0" y="82.0" text-anchor="middle" font-size="23" fill="var(--inverse-text)" opacity="0.94" data-bg-id="ITEM_3_BG" data-max-lines="5" style="font-size: 23px; font-family: 'Segoe UI Variable Text', 'Aptos', 'Inter', 'Segoe UI', Helvetica, Arial, sans-serif; font-weight: 400; font-kerning: normal; font-feature-settings: &quot;kern&quot; 1, &quot;liga&quot; 1;" data-final-font-size="23">
        <tspan x="0.0" dy="28.02px">Manual corrections become</tspan>
        <tspan x="0.0" dy="26.45px">difficult during rapid</tspan>
        <tspan x="0.0" dy="26.45px">altitude shifts</tspan>
      </text>
      <rect id="ITEM_3_BODY_FRAME" x="-174" y="82" width="348" height="108" fill="none"/>
      <circle id="ITEM_3_PAD" cx="0" cy="-45.0" r="62" fill="var(--icon-pad-bg)" stroke="var(--accent-3)" stroke-width="2" stroke-opacity="0.72" opacity="1" fill-opacity="0.9" data-badge-layer="pad"/>
      <circle id="ITEM_3_PAD_INNER" cx="0" cy="-45.0" r="48.36" fill="var(--accent-3)" fill-opacity="0.12" stroke="none" data-badge-layer="tint"/>
      <circle cx="0" cy="-45.0" r="49.6" fill="none" stroke="var(--accent-2)" stroke-width="3" stroke-dasharray="6 4" display="none" data-suppressed-decoration="redundant-badge-ring"/>
      <g id="ITEM_3_ICON" transform="translate(-48.0, -93.0)" data-icon-size="96" stroke-linecap="round" stroke-linejoin="round" data-badge-treatment="clean">
        <g transform="translate(-7.268571428571429,-7.268571428571428) scale(3.454285714285714)">
          <path fill-rule="evenodd" clip-rule="evenodd" d="M11.0288 18.7533C11.5295 16.6032 13.5621 15 15.9953 15C18.4284 15 20.4611 16.6032 20.9718 18.7533C21.1019 19.3285 20.7715 19.9132 20.2008 20.1583C17.5273 21.2806 14.4733 21.2806 11.7998 20.1583C11.2191 19.9132 10.8986 19.3285 11.0288 18.7533ZM4 23.0493V19.0001C4.00002 19.3563 4.1858 19.7125 4.55732 19.8855L15.0912 24.8015L15.0912 24.8015C15.6636 25.0662 16.3364 25.0662 16.9088 24.8015L27.4427 19.8855C27.8142 19.7125 28 19.3563 28 19V23.0493C28 24.2312 27.2968 25.2968 26.1817 25.7908L17.311 29.7239C16.4772 30.092 15.5228 30.092 14.689 29.7239L5.81833 25.7908C4.71327 25.2968 4 24.2312 4 23.0493Z" fill="#533566"/>
          <path d="M4.55732 18.1145L15.0912 13.1985C15.6636 12.9338 16.3264 12.9338 16.9088 13.1985L27.4427 18.1145C28.1858 18.4606 28.1858 19.5395 27.4427 19.8855L16.9088 24.8015C16.3364 25.0662 15.6636 25.0662 15.0912 24.8015L4.55732 19.8855C3.81423 19.5395 3.81423 18.4606 4.55732 18.1145ZM11.0288 18.7533C10.8986 19.3285 11.2191 19.9132 11.7998 20.1583C14.4733 21.2806 17.5273 21.2806 20.2008 20.1583C20.7715 19.9132 21.1019 19.3285 20.9718 18.7533C20.4611 16.6032 18.4284 15 15.9953 15C13.5621 15 11.5295 16.6032 11.0288 18.7533Z" fill="#635994"/>
          <path d="M4.13259 18.5C4.22542 18.6602 4.367 18.7969 4.55732 18.8855L15.0912 23.8015C15.6636 24.0661 16.3364 24.0661 16.9088 23.8015L27.4427 18.8855C27.633 18.7969 27.7746 18.6602 27.8674 18.5C28.137 18.9651 27.9954 19.6281 27.4427 19.8855L16.9088 24.8015C16.3364 25.0661 15.6636 25.0661 15.0912 24.8015L4.55732 19.8855C4.00455 19.6281 3.86297 18.9651 4.13259 18.5Z" fill="#6B438B"/>
          <path d="M16 6C16.5523 6 17 6.44772 17 7V15.25C17 15.8023 16.5523 16 16 16C15.4477 16 15 15.8023 15 15.25V7C15 6.44772 15.4477 6 16 6Z" fill="#D3D3D3"/>
          <path d="M20.68 6.67999C20.68 9.26469 18.5847 11.36 16 11.36C13.4153 11.36 11.32 9.26469 11.32 6.67999C11.32 4.0953 13.4153 2 16 2C18.5847 2 20.68 4.0953 20.68 6.67999ZM6.45498 18.76C6.59498 18.12 7.17498 17.63 7.86498 17.63C8.55498 17.63 9.13498 18.12 9.28498 18.76C9.32498 18.93 9.22498 19.11 9.06498 19.18C8.30498 19.52 7.43498 19.52 6.67498 19.18C6.50498 19.11 6.41498 18.93 6.45498 18.76Z" fill="#F8312F"/>
        </g>
      </g>
    </g>
    <g transform="translate(1226.7, 720)">
      <rect id="ITEM_4_BG" x="-180.0" y="-150" width="360" height="390" rx="24" fill="var(--accent-1)" fill-opacity="1.0" stroke="var(--accent-3)" stroke-width="2.6"/>
      <text id="ITEM_4_HEAD" x="0.0" y="8.0" text-anchor="middle" font-weight="bold" font-size="30" fill="var(--inverse-text)" data-bg-id="ITEM_4_BG" fill-opacity="1.0" style="font-size: 31px; font-family: 'Segoe UI Variable Display', 'Aptos Display', 'Inter', 'Segoe UI', Helvetica, Arial, sans-serif; font-weight: 700; font-kerning: normal; font-feature-settings: &quot;kern&quot; 1, &quot;liga&quot; 1; letter-spacing:-0.4px;" data-final-font-size="31">
        <tspan x="0.0" dy="49.82px">Safety Margins</tspan>
      </text>
      <rect id="ITEM_4_HEAD_FRAME" x="-150.0" y="8" width="300" height="70" fill="none"/>
      <text id="ITEM_4_BODY" x="0.0" y="82.0" text-anchor="middle" font-size="23" fill="var(--inverse-text)" opacity="0.94" data-bg-id="ITEM_4_BG" data-max-lines="5" style="font-size: 23px; font-family: 'Segoe UI Variable Text', 'Aptos', 'Inter', 'Segoe UI', Helvetica, Arial, sans-serif; font-weight: 400; font-kerning: normal; font-feature-settings: &quot;kern&quot; 1, &quot;liga&quot; 1;" data-final-font-size="23">
        <tspan x="0.0" dy="33.31px">Limited space over roads reduces</tspan>
        <tspan x="0.0" dy="26.45px">recovery options for failures</tspan>
      </text>
      <rect id="ITEM_4_BODY_FRAME" x="-174" y="82" width="348" height="108" fill="none"/>
      <circle id="ITEM_4_PAD" cx="0" cy="-45.0" r="62" fill="var(--icon-pad-bg)" stroke="var(--accent-1)" stroke-width="2" stroke-opacity="0.72" opacity="1" fill-opacity="0.9" data-badge-layer="pad"/>
      <circle id="ITEM_4_PAD_INNER" cx="0" cy="-45.0" r="48.36" fill="var(--accent-1)" fill-opacity="0.12" stroke="none" data-badge-layer="tint"/>
      <circle cx="0" cy="-45.0" r="49.6" fill="none" stroke="var(--accent-3)" stroke-width="3" stroke-dasharray="6 4" display="none" data-suppressed-decoration="redundant-badge-ring"/>
      <g id="ITEM_4_ICON" transform="translate(-48.0, -93.0)" data-icon-size="96" stroke-linecap="round" stroke-linejoin="round" data-badge-treatment="clean">
        <g transform="translate(-4.45830508474577,-4.45830508474577) scale(4.371525423728814)" vector-effect="non-scaling-stroke" stroke-width="2.86" stroke-linecap="round" stroke-linejoin="round" stroke-opacity="1.0">
          <path d="M13.446 2.6l7.955 7.954a2.045 2.045 0 0 1 0 2.892l-7.955 7.955a2.045 2.045 0 0 1 -2.892 0l-7.955 -7.955a2.045 2.045 0 0 1 0 -2.892l7.955 -7.955a2.045 2.045 0 0 1 2.892 0z" vector-effect="non-scaling-stroke" fill="none" stroke="#f1f5f9"/>
          <path d="M9 14v-2c0 -.59 .414 -1 1 -1h5" vector-effect="non-scaling-stroke" fill="none" stroke="#f1f5f9"/>
          <path d="M13 9l2 2l-2 2" vector-effect="non-scaling-stroke" fill="none" stroke="#f1f5f9"/>
        </g>
      </g>
    </g>
    <g transform="translate(1710.0, 720)">
      <rect id="ITEM_5_BG" x="-180.0" y="-150" width="360" height="390" rx="24" fill="var(--accent-2)" fill-opacity="1.0" stroke="var(--accent-4)" stroke-width="2.6"/>
      <text id="ITEM_5_HEAD" x="0.0" y="8.0" text-anchor="middle" font-weight="bold" font-size="30" fill="var(--inverse-text)" data-bg-id="ITEM_5_BG" fill-opacity="1.0" style="font-size: 31px; font-family: 'Segoe UI Variable Display', 'Aptos Display', 'Inter', 'Segoe UI', Helvetica, Arial, sans-serif; font-weight: 700; font-kerning: normal; font-feature-settings: &quot;kern&quot; 1, &quot;liga&quot; 1; letter-spacing:-0.4px;" data-final-font-size="31">
        <tspan x="0.0" dy="49.82px">Emergency Protocols</tspan>
      </text>
      <rect id="ITEM_5_HEAD_FRAME" x="-150.0" y="8" width="300" height="70" fill="none"/>
      <text id="ITEM_5_BODY" x="0.0" y="82.0" text-anchor="middle" font-size="23" fill="var(--inverse-text)" opacity="0.94" data-bg-id="ITEM_5_BG" data-max-lines="5" style="font-size: 23px; font-family: 'Segoe UI Variable Text', 'Aptos', 'Inter', 'Segoe UI', Helvetica, Arial, sans-serif; font-weight: 400; font-kerning: normal; font-feature-settings: &quot;kern&quot; 1, &quot;liga&quot; 1;" data-final-font-size="23">
        <tspan x="0.0" dy="28.02px">Standard procedures dictate</tspan>
        <tspan x="0.0" dy="26.45px">immediate landing during severe</tspan>
        <tspan x="0.0" dy="26.45px">malfunctions</tspan>
      </text>
      <rect id="ITEM_5_BODY_FRAME" x="-174" y="82" width="348" height="108" fill="none"/>
      <circle id="ITEM_5_PAD" cx="0" cy="-45.0" r="62" fill="var(--icon-pad-bg)" stroke="var(--accent-2)" stroke-width="2" stroke-opacity="0.72" opacity="1" fill-opacity="0.9" data-badge-layer="pad"/>
      <circle id="ITEM_5_PAD_INNER" cx="0" cy="-45.0" r="48.36" fill="var(--accent-2)" fill-opacity="0.12" stroke="none" data-badge-layer="tint"/>
      <circle cx="0" cy="-45.0" r="49.6" fill="none" stroke="var(--accent-4)" stroke-width="3" stroke-dasharray="6 4" display="none" data-suppressed-decoration="redundant-badge-ring"/>
      <g id="ITEM_5_ICON" transform="translate(-48.0, -93.0)" data-icon-size="96" stroke-linecap="round" stroke-linejoin="round" data-badge-treatment="clean">
        <g transform="translate(-7.268571428571428,-6.836785714285711) scale(3.454285714285714)">
          <path d="M16.4738 21.0049H15.0238C14.8138 21.0049 14.6438 21.1749 14.6438 21.3849V22.4749H16.4838V24.4349H17.4938C17.8538 24.4349 18.1338 24.1449 18.1338 23.7949V21.6449C18.1338 21.2849 17.8438 21.0049 17.4938 21.0049H16.4738Z" fill="#433B6B"/>
          <path d="M14.1138 26.165L14.9638 27.585C15.0038 27.645 14.9738 27.725 14.9138 27.735L13.6538 28.125C13.5738 28.145 13.4938 28.095 13.4738 28.015C13.4638 27.975 13.4738 27.925 13.5038 27.895L13.8638 27.445C13.9138 27.395 13.9238 27.315 13.8838 27.255L13.4638 26.535L14.1138 26.165ZM17.2838 28.7951L16.4238 28.0051L16.9138 27.3151L18.0338 28.3651C18.0838 28.4151 18.1138 28.4951 18.1038 28.5751L17.9538 29.5751C17.9238 29.7551 17.6638 29.7851 17.6038 29.6051L17.3638 28.9251C17.3538 28.8751 17.3238 28.8251 17.2838 28.7951Z" fill="#635994"/>
          <path d="M18.4138 20.145V21.145C18.4138 21.315 18.2738 21.455 18.1038 21.455H14.2938C14.1238 21.455 13.9838 21.315 13.9838 21.145V20.145H13.0938V21.145C13.0938 21.805 13.6338 22.345 14.2938 22.345H15.0138V23.995H13.8638C13.4738 23.995 13.1138 24.195 12.9138 24.525C12.7138 24.855 12.6938 25.265 12.8838 25.615L13.4038 26.725C13.5038 26.905 13.6938 27.025 13.8938 27.025C13.9838 27.025 14.0738 27.005 14.1538 26.965C14.4238 26.825 14.5338 26.485 14.3938 26.215L13.8738 25.115H16.0138L15.6438 25.885C15.3738 26.465 15.4738 27.145 15.8938 27.615L16.4638 28.265C16.5738 28.385 16.7238 28.455 16.8838 28.455C17.0238 28.455 17.1538 28.405 17.2538 28.315C17.4838 28.105 17.5038 27.755 17.2938 27.525L16.7238 26.875C16.5938 26.735 16.5638 26.535 16.6538 26.365L17.3738 24.855C17.3838 24.835 17.3938 24.805 17.4038 24.785C17.4338 24.725 17.4438 24.655 17.4438 24.585V22.365H18.1038C18.7638 22.365 19.3038 21.825 19.3038 21.165V20.165H18.4138V20.145Z" fill="#FF6723"/>
          <path d="M15.0138 21.25V22.9949C14.8038 22.9949 14.6338 22.8249 14.6338 22.6149V21.4449L15.0138 21.25Z" fill="#433B6B"/>
          <path d="M17.4438 21.4449V22.9949C17.2338 22.9949 17.0638 22.8249 17.0638 22.6149V21.25L17.4438 21.4449Z" fill="#433B6B"/>
          <path d="M15.7838 19.2451H16.4838C16.9138 19.2451 17.2538 19.5851 17.2638 20.0351V20.8251C17.2638 20.8494 17.2603 20.8726 17.2538 20.8943V20.9451C17.2538 21.5051 16.7938 21.9651 16.2238 21.9651H16.0438C15.5738 21.9651 15.1938 21.5851 15.1938 21.1151V20.4751H15.8138V20.3351H15.1538C15.0738 20.3351 15.0138 20.2751 15.0138 20.1951V20.0251C15.0138 19.5951 15.3538 19.2451 15.7838 19.2451Z" fill="#00A6ED"/>
          <path d="M16.4738 20.595H17.2638V20.835H16.4738V20.595Z" fill="#433B6B"/>
          <path d="M15.0138 23.5549H17.4438V23.9949H15.0138V23.5549Z" fill="#433B6B"/>
          <path d="M16.9838 20.4651C17.0611 20.4651 17.1238 20.4024 17.1238 20.3251C17.1238 20.2477 17.0611 20.1851 16.9838 20.1851C16.9065 20.1851 16.8438 20.2477 16.8438 20.3251C16.8438 20.4024 16.9065 20.4651 16.9838 20.4651Z" fill="#5092FF"/>
          <path d="M18.2538 11.4998C18.2538 11.2698 18.4338 11.0898 18.6638 11.0898C18.8938 11.0898 19.0738 11.2698 19.0738 11.4998V19.1585C19.261 19.2282 19.426 19.3442 19.5547 19.4924L26.5588 13.4999C26.7288 13.3499 26.9888 13.3699 27.1388 13.5399C27.2888 13.7099 27.2688 13.9699 27.0988 14.1199L19.8432 20.3348C19.822 20.9664 19.3005 21.4749 18.6638 21.4749C18.0138 21.4749 17.4838 20.9449 17.4838 20.2949V20.2649C17.4838 19.7589 17.8049 19.3257 18.2538 19.1585V16.3649H13.7538V19.1585C14.2027 19.3257 14.5238 19.7589 14.5238 20.2649V20.2949C14.5238 20.9449 13.9938 21.4749 13.3438 21.4749C12.6938 21.4749 12.1638 20.9449 12.1638 20.2949V20.2649C12.1638 20.222 12.1661 20.1797 12.1706 20.1381L5.13879 14.1199C4.96879 13.9699 4.94879 13.7099 5.09879 13.5399C5.24879 13.3699 5.50879 13.3499 5.67879 13.4999L12.5616 19.3826C12.6698 19.2865 12.7958 19.2099 12.9338 19.1585V11.4998C12.9338 11.2698 13.1138 11.0898 13.3438 11.0898C13.5738 11.0898 13.7538 11.2698 13.7538 11.4998V15.5449H18.2538V11.4998ZM19.0238 20.2649C19.0238 20.0649 18.8638 19.9049 18.6638 19.9049C18.4638 19.9049 18.3038 20.0649 18.3038 20.2649V20.2949C18.3038 20.4949 18.4638 20.6549 18.6638 20.6549C18.8638 20.6549 19.0238 20.4949 19.0238 20.2949V20.2649Z" fill="#D3D3D3"/>
          <path d="M16.2938 20.325H15.3138C15.1038 20.325 14.9338 20.495 14.9338 20.705C14.9338 20.915 15.1038 21.085 15.3138 21.085H15.3238C15.4238 21.085 15.5138 21.025 15.5438 20.935L15.5638 20.875C15.5838 20.825 15.6338 20.795 15.6838 20.795C15.7338 20.795 15.7838 20.825 15.8038 20.875L15.8238 20.935C15.8638 21.025 15.9538 21.085 16.0438 21.085H16.2738C16.4838 21.085 16.6538 20.915 16.6538 20.705C16.6738 20.505 16.5038 20.325 16.2938 20.325Z" fill="#26EAFC"/>
          <path d="M15.3138 20.2349H16.2938C16.5515 20.2349 16.7665 20.4543 16.7438 20.7093C16.7414 20.9669 16.532 21.1748 16.2738 21.1748H16.0438C15.9156 21.1748 15.7949 21.0913 15.7416 20.9713L15.7381 20.9634L15.7196 20.9066C15.7138 20.8943 15.6994 20.8848 15.6838 20.8848C15.6682 20.8848 15.6538 20.8943 15.648 20.9066L15.6292 20.9633C15.5856 21.094 15.4581 21.1748 15.3238 21.1748H15.3138C15.0541 21.1748 14.8439 20.9645 14.8439 20.7048C14.8439 20.4451 15.0541 20.2349 15.3138 20.2349ZM15.0238 20.7048C15.0238 20.8651 15.1535 20.9949 15.3138 20.9949H15.3238C15.3895 20.9949 15.4421 20.9556 15.4585 20.9064L15.4802 20.8413C15.5149 20.7544 15.6001 20.7049 15.6838 20.7049C15.7675 20.7049 15.8526 20.7545 15.8873 20.8414L15.8893 20.8463L15.9076 20.9018C15.935 20.9598 15.9931 20.9949 16.0438 20.9949H16.2738C16.4341 20.9949 16.5639 20.8651 16.5639 20.7048V20.6958C16.5782 20.5527 16.4546 20.4148 16.2938 20.4148H15.3138C15.1535 20.4148 15.0238 20.5445 15.0238 20.7048Z" fill="#D3D3D3"/>
          <path d="M13.3138 20.715H13.3338C13.5538 20.715 13.7238 20.545 13.7238 20.335V20.125H12.9338V20.335C12.9338 20.545 13.1038 20.715 13.3138 20.715ZM18.2738 20.355C18.2738 20.565 18.4438 20.745 18.6638 20.745C18.8838 20.745 19.0538 20.565 19.0638 20.355V20.145H18.2738V20.355Z" fill="#FF6723"/>
          <path d="M20.2038 4.08498L22 8.5L19.1053 12.0042C18.1534 11.8201 17.1143 11.705 16.0038 11.705C14.8785 11.7079 13.8264 11.8273 12.8644 12.0163C12.878 12.0112 12.8911 12.0074 12.9038 12.005L9.5 8.5L11.8038 4.08499C11.8138 4.06499 11.8338 4.045 11.8538 4.025C13.9638 1.325 18.0538 1.325 20.1638 4.025C20.1738 4.035 20.1813 4.045 20.1888 4.055C20.1953 4.06364 20.2018 4.07228 20.2099 4.08092L20.2038 4.08498Z" fill="#00D26A"/>
          <path d="M5.2538 6.41484C5.2538 6.41484 5.8238 5.24484 7.1238 4.46484L11.4238 12.3648C9.7538 12.8548 8.4438 13.5048 7.6338 13.9748C7.0438 14.3248 6.4038 14.4848 5.7638 14.4848C4.4738 14.4848 3.2138 13.8148 2.5238 12.6248C2.1738 12.0248 2.0138 11.3748 2.0138 10.7348C1.7538 7.12484 5.2538 6.41484 5.2538 6.41484Z" fill="#F9C23C"/>
          <path d="M29.9938 10.7249C29.9938 11.3749 29.8338 12.0249 29.4838 12.6149C28.4438 14.4049 26.1538 15.0049 24.3738 13.9749C23.6438 13.5449 22.5138 12.9749 21.0738 12.5149L26.4538 5.92493C26.6538 6.20493 26.7538 6.40493 26.7538 6.40493C26.7538 6.40493 30.2538 7.11493 29.9938 10.7249Z" fill="#F9C23C"/>
          <path d="M23.9038 4.02498C25.5238 4.54498 26.3838 5.78498 26.6538 6.24498L26.7538 6.41498L21.7638 12.755C20.9838 12.465 20.0838 12.205 19.1038 12.015L20.2038 4.08498C20.2038 4.08498 21.9938 3.40498 23.9038 4.02498Z" fill="#5092FF"/>
          <path d="M8.09381 4.02498C6.48381 4.54498 5.62381 5.78498 5.35381 6.23498L5.25381 6.40498L10.2438 12.745C11.0238 12.455 11.9238 12.195 12.9038 12.005L11.8038 4.08498C11.8038 4.08498 10.0138 3.40498 8.09381 4.02498Z" fill="#F8312F"/>
        </g>
      </g>
    </g>
  </g>
  <text id="SOURCE_NOTE" x="134.0" y="1058.0" fill="var(--muted-text)" opacity="1" style="font-family: var(--font-family); font-size: 20px;">Source: www.gov.uk AAI B investigation to Rotorsport UK Cavalon, G-CKYT</text>
</svg>
