<?xml version='1.0' encoding='utf-8'?>
<svg xmlns="http://www.w3.org/2000/svg" width="1920" height="1080" viewBox="0 0 1920 1080" data-theme="dark" data-semantic-intent="uncertain_compare" data-relation-type="hypothesis_comparison" data-site-visual-identity="signal-cobalt">
  <style>
        @font-face {
            font-family: 'Inter';
            src: url('assets/fonts/Inter-Regular.ttf') format('truetype');
            font-weight: 400;
            font-style: normal;
            font-display: swap;
        }
        @font-face {
            font-family: 'Inter';
            src: url('assets/fonts/Inter-Bold.ttf') format('truetype');
            font-weight: 600;
            font-style: normal;
            font-display: swap;
        }
        @font-face {
            font-family: 'Inter';
            src: url('assets/fonts/Inter-Bold.ttf') format('truetype');
            font-weight: 800;
            font-style: normal;
            font-display: swap;
        }
        
:root {
    --background: #0f172a;
    --panel: #1e293b;
    --primary-text: #f1f5f9;
    --muted-text: #94a3b8;
    --inverse-text: #0f172a;
    --border: #334155;
    --shadow-color: #000000;
    --icon-pad-bg: #1e293b;
    --art-glow: #7dd3fc;
    --art-glow-opacity: 0.18;
    --art-sheen: #ffffff;
    --art-sheen-opacity: 0.18;
    --art-shadow: #000000;
    --art-shadow-opacity: 0.28;
    --art-muted-line: #64748b;
    --art-panel-tint: #1e293b;
    --semantic-risk: #f87171;
    --semantic-warning: #fb923c;
    --semantic-uncertain: #fbbf24;
    --semantic-evidence: #60a5fa;
    --semantic-claim: #c084fc;
    --semantic-positive: #4ade80;
    --semantic-outcome: #22d3ee;
    --font-family: 'Inter', 'Segoe UI', 'Kalam', Roboto, Helvetica, Arial, sans-serif;
    --radius-xl: 16px;
    --font-family-headline: 'Segoe UI Variable Display', 'Aptos Display', 'Inter', 'Segoe UI', Helvetica, Arial, sans-serif;
    --font-family-body: 'Segoe UI Variable Text', 'Aptos', 'Inter', 'Segoe UI', Helvetica, Arial, sans-serif;
    --font-heading: var(--font-family-headline);
    --font-body: var(--font-family-body);
    --font-size-h1: 64px;
    --font-size-h2: 42px;
    --font-size-h3: 29px;
    --font-size-body: 21px;
    --font-size-caption: 17px;
    --secondary-text: var(--muted-text);
    --panel-border: var(--border);
    --font-weight-normal: 400;
    --font-weight-medium: 500;
    --font-weight-semibold: 600;
    --font-weight-bold: 700;
    --spacing-gutter-pct: 0.07;
    --spacing-top-pct: 0.15;
    --spacing-bottom-pct: 0.07;
    --spacing-title-y-pct: 0.055;
    --accent-1: #93c5fd;
    --accent-2: #60a5fa;
    --accent-3: #818cf8;
    --accent-4: #a78bfa;
    --accent-5: #38bdf8;
    --accent-6: #fb923c;
}
:root[data-theme="dark"] {
    --background: #0f172a;
    --panel: #1e293b;
    --primary-text: #f1f5f9;
    --muted-text: #94a3b8;
    --inverse-text: #0f172a;
    --border: #334155;
    --shadow-color: #000000;
    --icon-pad-bg: #1e293b;
    --art-glow: #7dd3fc;
    --art-glow-opacity: 0.18;
    --art-sheen: #ffffff;
    --art-sheen-opacity: 0.18;
    --art-shadow: #000000;
    --art-shadow-opacity: 0.28;
    --art-muted-line: #64748b;
    --art-panel-tint: #1e293b;
    --semantic-risk: #f87171;
    --semantic-warning: #fb923c;
    --semantic-uncertain: #fbbf24;
    --semantic-evidence: #60a5fa;
    --semantic-claim: #c084fc;
    --semantic-positive: #4ade80;
    --semantic-outcome: #22d3ee;
    --accent-1: #93c5fd;
    --accent-2: #60a5fa;
    --accent-3: #818cf8;
    --accent-4: #a78bfa;
    --accent-5: #38bdf8;
    --accent-6: #fb923c;
}
:root[data-theme="light"] {
    --background: #f8fafc;
    --panel: #ffffff;
    --primary-text: #0f172a;
    --muted-text: #64748b;
    --inverse-text: #ffffff;
    --border: #e2e8f0;
    --shadow-color: #000000;
    --icon-pad-bg: #1e293b;
    --art-glow: #0891b2;
    --art-glow-opacity: 0.10;
    --art-sheen: #ffffff;
    --art-sheen-opacity: 0.34;
    --art-shadow: #0f172a;
    --art-shadow-opacity: 0.14;
    --art-muted-line: #94a3b8;
    --art-panel-tint: #f1f5f9;
    --semantic-risk: #b91c1c;
    --semantic-warning: #c2410c;
    --semantic-uncertain: #a16207;
    --semantic-evidence: #1d4ed8;
    --semantic-claim: #6d28d9;
    --semantic-positive: #15803d;
    --semantic-outcome: #0e7490;
    --accent-1: #1d4ed8;
    --accent-2: #2563eb;
    --accent-3: #4f46e5;
    --accent-4: #6d28d9;
    --accent-5: #0369a1;
    --accent-6: #c2410c;
}</style>
  <rect x="0" y="0" width="1.92E+3" height="1.08E+3" fill="#0f172a" stroke="none" id="programmatic_background"/>
  <line id="HEADER_DECOR" x1="960.0" x2="1080.0" y1="135.0" y2="135.0" stroke="var(--accent-1)" stroke-width="6" stroke-linecap="round"/>
  <defs>
    <pattern id="svg9cd19821-napkin-hatch" patternUnits="userSpaceOnUse" width="12" height="12">
      <path d="M -3 12 L 12 -3 M 0 15 L 15 0" fill="none" stroke="var(--primary-text)" stroke-width="1" stroke-opacity="0.05"/>
    </pattern>
    <filter id="svg9cd19821-shadow" x="-30%" y="-30%" width="160%" height="160%">
      <feDropShadow dx="0" dy="2" stdDeviation="3" flood-color="#000000" flood-opacity="0.08"/>
      <feDropShadow dx="0" dy="6" stdDeviation="10" flood-color="#000000" flood-opacity="0.12"/>
    </filter>
    <radialGradient id="svg9cd19821-universal-edge-vignette" cx="50%" cy="50%" r="72%">
      <stop offset="0%" stop-color="var(--background)" stop-opacity="0"/>
      <stop offset="72%" stop-color="var(--background)" stop-opacity="0.12"/>
      <stop offset="100%" stop-color="var(--primary-text)" stop-opacity="0.08"/>
    </radialGradient>
    <linearGradient id="svg9cd19821-universal-surface-sheen" x1="0%" y1="0%" x2="100%" y2="100%">
      <stop offset="0%" stop-color="var(--art-sheen)" stop-opacity="var(--art-sheen-opacity)"/>
      <stop offset="46%" stop-color="var(--art-sheen)" stop-opacity="0.035"/>
      <stop offset="100%" stop-color="var(--art-panel-tint)" stop-opacity="0.14"/>
    </linearGradient>
    <radialGradient id="svg9cd19821-universal-icon-aura" cx="50%" cy="42%" r="64%">
      <stop offset="0%" stop-color="var(--art-glow)" stop-opacity="var(--art-glow-opacity)"/>
      <stop offset="100%" stop-color="var(--background)" stop-opacity="0"/>
    </radialGradient>
    <linearGradient id="svg9cd19821-fact-card-sheen" x1="0%" y1="0%" x2="100%" y2="100%">
      <stop offset="0%" stop-color="var(--inverse-text)" stop-opacity="0.18"/>
      <stop offset="54%" stop-color="var(--inverse-text)" stop-opacity="0.04"/>
      <stop offset="100%" stop-color="var(--background)" stop-opacity="0.14"/>
    </linearGradient>
    <radialGradient id="svg9cd19821-fact-icon-glow" cx="50%" cy="42%" r="62%">
      <stop offset="0%" stop-color="var(--inverse-text)" stop-opacity="0.22"/>
      <stop offset="100%" stop-color="var(--background)" stop-opacity="0"/>
    </radialGradient>
    <filter id="svg9cd19821-text-glow" x="-20%" y="-20%" width="140%" height="140%">
      <feDropShadow dx="0" dy="0" stdDeviation="2" flood-color="#000000" flood-opacity="0.4"/>
    </filter>
    <marker id="svg9cd19821-arrowhead" markerWidth="10" markerHeight="7" refX="9" refY="3.5" orient="auto" markerUnits="strokeWidth">
      <polygon points="0 0, 10 3.5, 0 7" fill="var(--muted-text)" opacity="0.6"/>
    </marker>
  </defs>
  <rect width="100%" height="100%" fill="var(--background)" id="CANVAS_BG"/>
  <rect width="100%" height="100%" fill="url(#svg9cd19821-napkin-hatch)"/>
  <rect id="UNIVERSAL_EDGE_VIGNETTE" width="100%" height="100%" fill="url(#svg9cd19821-universal-edge-vignette)" opacity="0.62"/>
  <line x1="960" y1="178" x2="960" y2="986" stroke="var(--muted-text)" stroke-width="5" stroke-opacity="0.10" stroke-linecap="round"/>
  <path d="M 360 178 C 620 152 1300 152 1560 178" fill="none" stroke="var(--primary-text)" stroke-width="2" stroke-opacity="0.12" stroke-linecap="round"/>
  <text id="TITLE" x="960.0" y="59" text-anchor="middle" font-weight="800" font-size="72" fill="#f1f5f9" style="font-size: 69px; font-family: 'Segoe UI Variable Display', 'Aptos Display', 'Inter', 'Segoe UI', Helvetica, Arial, sans-serif; font-weight: 800; font-kerning: normal; font-feature-settings: &quot;kern&quot; 1, &quot;liga&quot; 1; letter-spacing:-1.2px;" data-final-font-size="69">
    <tspan x="960.0" dy="70.47px">Interpretations of Cash–Landrum Evidence</tspan>
  </text>
  <rect id="TITLE_FRAME" x="134" y="59" width="1652" height="103" fill="none"/>
  <g transform="translate(960.0, 250.0)">
    <rect id="ITEM_1_BG" x="-600" y="-72" width="1200" height="176" rx="24" fill="var(--semantic-uncertain)" stroke="var(--accent-1)" filter="url(#svg9cd19821-shadow)" stroke-width="3" fill-opacity="0.4"/>
    <g transform="translate(-480.0, 0.0)">
      <circle r="60" fill="var(--background)" opacity="0.3"/>
      <circle id="ITEM_1_PAD" cx="0" cy="0" r="50" fill="var(--icon-pad-bg)" stroke="var(--semantic-uncertain)" opacity="1" fill-opacity="0.9" stroke-width="2" stroke-opacity="0.72" data-badge-layer="pad"/>
      <circle id="ITEM_1_PAD_INNER" cx="0" cy="0" r="39.00" fill="var(--semantic-uncertain)" fill-opacity="0.12" stroke="none" data-badge-layer="tint"/>
      <circle cx="0" cy="0" r="40" fill="none" stroke="var(--accent-1)" stroke-width="3" stroke-dasharray="6 4" display="none" data-suppressed-decoration="redundant-badge-ring"/>
      <g id="ITEM_1_ICON" transform="translate(-39, -39)" data-icon-size="78" stroke-linecap="round" stroke-linejoin="round" data-badge-treatment="clean">
        <g transform="translate(-5.571428571428571,-5.571428571428571) scale(2.7857142857142856)">
          <path d="M12.8472 3.83391C12.9336 2.79732 13.8001 2 14.8403 2H17.1597C18.1999 2 19.0664 2.79732 19.1528 3.83391L19.3882 6.6587C19.422 7.06373 19.8992 7.2614 20.2095 6.99887L22.3734 5.16789C23.1674 4.49599 24.3439 4.54493 25.0795 5.28045L26.7196 6.92056C27.4551 7.65608 27.504 8.8326 26.8321 9.62666L25.0012 11.7905C24.7386 12.1008 24.9363 12.578 25.3413 12.6118L28.1661 12.8472C29.2027 12.9336 30 13.8001 30 14.8403V17.1597C30 18.1999 29.2027 19.0664 28.1661 19.1528L25.3413 19.3882C24.9363 19.422 24.7386 19.8992 25.0012 20.2095L26.8321 22.3733C27.504 23.1674 27.4551 24.3439 26.7196 25.0794L25.0795 26.7196C24.3439 27.4551 23.1674 27.504 22.3734 26.8321L20.2095 25.0011C19.8992 24.7386 19.422 24.9363 19.3882 25.3413L19.1528 28.1661C19.0664 29.2027 18.1999 30 17.1597 30H14.8403C13.8001 30 12.9336 29.2027 12.8472 28.1661L12.6118 25.3413C12.578 24.9363 12.1008 24.7386 11.7905 25.0012L9.62666 26.8321C8.8326 27.504 7.65608 27.4551 6.92056 26.7196L5.28045 25.0795C4.54493 24.3439 4.496 23.1674 5.16789 22.3734L6.99888 20.2095C7.26141 19.8992 7.06373 19.422 6.65871 19.3882L3.83391 19.1528C2.79732 19.0664 2 18.1999 2 17.1597V14.8403C2 13.8001 2.79732 12.9336 3.83391 12.8472L6.65871 12.6118C7.06373 12.578 7.2614 12.1008 6.99888 11.7905L5.16789 9.62664C4.496 8.83258 4.54493 7.65606 5.28045 6.92054L6.92056 5.28043C7.65608 4.54491 8.8326 4.49597 9.62666 5.16787L11.7905 6.99884C12.1008 7.26137 12.578 7.06369 12.6118 6.65867L12.8472 3.83391ZM21 16C21 13.2386 18.7614 11 16 11C13.2386 11 11 13.2386 11 16C11 18.7614 13.2386 21 16 21C18.7614 21 21 18.7614 21 16Z" fill="#B4ACBC"/>
          <path d="M24 16C24 20.4183 20.4183 24 16 24C11.5817 24 8 20.4183 8 16C8 11.5817 11.5817 8 16 8C20.4183 8 24 11.5817 24 16ZM20.5 16C20.5 13.5147 18.4853 11.5 16 11.5C13.5147 11.5 11.5 13.5147 11.5 16C11.5 18.4853 13.5147 20.5 16 20.5C18.4853 20.5 20.5 18.4853 20.5 16Z" fill="#998EA4"/>
          <path d="M10.5 16C10.5 12.9624 12.9624 10.5 16 10.5C19.0376 10.5 21.5 12.9624 21.5 16C21.5 19.0376 19.0376 21.5 16 21.5C12.9624 21.5 10.5 19.0376 10.5 16ZM21 16C21 13.2386 18.7614 11 16 11C13.2386 11 11 13.2386 11 16C11 18.7614 13.2386 21 16 21C18.7614 21 21 18.7614 21 16Z" fill="#CDC4D6"/>
        </g>
      </g>
    </g>
    <g transform="translate(-330, -36)">
      <text id="ITEM_1_HEAD" text-anchor="start" font-weight="bold" font-size="34" fill="var(--primary-text)" x="0.0" y="-10.0" data-bg-id="ITEM_1_BG" fill-opacity="1.0" stroke="none" style="font-size: 31px; font-family: 'Segoe UI Variable Display', 'Aptos Display', 'Inter', 'Segoe UI', Helvetica, Arial, sans-serif; font-weight: 700; font-kerning: normal; font-feature-settings: &quot;kern&quot; 1, &quot;liga&quot; 1; letter-spacing:-0.4px;" data-final-font-size="31">
        <tspan x="0.0" dy="30.52px">Propulsion System Theory</tspan>
      </text>
      <rect id="ITEM_1_HEAD_FRAME" x="0" y="-10" width="846" height="44" fill="none"/>
      <text id="ITEM_1_BODY" text-anchor="start" font-size="24" fill="var(--primary-text)" x="0.0" y="24.0" data-bg-id="ITEM_1_BG" style="font-size: 23px; font-family: 'Segoe UI Variable Text', 'Aptos', 'Inter', 'Segoe UI', Helvetica, Arial, sans-serif; font-weight: 400; font-kerning: normal; font-feature-settings: &quot;kern&quot; 1, &quot;liga&quot; 1;" data-final-font-size="23">
        <tspan x="0.0" dy="24.62px">Consistent sequence suggests unconventional or malfunctioning</tspan>
        <tspan x="0.0" dy="26.45px">craft mechanics</tspan>
      </text>
      <rect id="ITEM_1_BODY_FRAME" x="0" y="24" width="846" height="84" fill="none"/>
    </g>
  </g>
  <g transform="translate(960.0, 465.0)">
    <rect id="ITEM_2_BG" x="-600" y="-72" width="1200" height="176" rx="24" fill="var(--semantic-uncertain)" stroke="var(--accent-2)" filter="url(#svg9cd19821-shadow)" stroke-width="3" fill-opacity="0.4"/>
    <g transform="translate(-480.0, 0.0)">
      <circle r="60" fill="var(--background)" opacity="0.3"/>
      <circle id="ITEM_2_PAD" cx="0" cy="0" r="50" fill="var(--icon-pad-bg)" stroke="var(--semantic-uncertain)" opacity="1" fill-opacity="0.9" stroke-width="2" stroke-opacity="0.72" data-badge-layer="pad"/>
      <circle id="ITEM_2_PAD_INNER" cx="0" cy="0" r="39.00" fill="var(--semantic-uncertain)" fill-opacity="0.12" stroke="none" data-badge-layer="tint"/>
      <circle cx="0" cy="0" r="40" fill="none" stroke="var(--accent-1)" stroke-width="3" stroke-dasharray="6 4" display="none" data-suppressed-decoration="redundant-badge-ring"/>
      <g id="ITEM_2_ICON" transform="translate(-39, -39)" data-icon-size="78" stroke-linecap="round" stroke-linejoin="round" data-badge-treatment="clean">
        <g transform="translate(-7.222222222222223,-5.777777777777778) scale(0.3611111111111111)" vector-effect="non-scaling-stroke" stroke-width="2.65" stroke-linecap="round" stroke-linejoin="round" stroke-opacity="1.0">
          <line x1="96" y1="128" x2="160" y2="128" fill="none" stroke="#f1f5f9" vector-effect="non-scaling-stroke"/>
          <line x1="96" y1="160" x2="160" y2="160" fill="none" stroke="#f1f5f9" vector-effect="non-scaling-stroke"/>
          <path d="M48,40H208a0,0,0,0,1,0,0V200a24,24,0,0,1-24,24H72a24,24,0,0,1-24-24V40A0,0,0,0,1,48,40Z" fill="none" stroke="#f1f5f9" vector-effect="non-scaling-stroke"/>
          <line x1="80" y1="24" x2="80" y2="56" fill="none" stroke="#f1f5f9" vector-effect="non-scaling-stroke"/>
          <line x1="128" y1="24" x2="128" y2="56" fill="none" stroke="#f1f5f9" vector-effect="non-scaling-stroke"/>
          <line x1="176" y1="24" x2="176" y2="56" fill="none" stroke="#f1f5f9" vector-effect="non-scaling-stroke"/>
        </g>
      </g>
    </g>
    <g transform="translate(-330, -36)">
      <text id="ITEM_2_HEAD" text-anchor="start" font-weight="bold" font-size="34" fill="var(--primary-text)" x="0.0" y="-10.0" data-bg-id="ITEM_2_BG" fill-opacity="1.0" stroke="none" style="font-size: 31px; font-family: 'Segoe UI Variable Display', 'Aptos Display', 'Inter', 'Segoe UI', Helvetica, Arial, sans-serif; font-weight: 700; font-kerning: normal; font-feature-settings: &quot;kern&quot; 1, &quot;liga&quot; 1; letter-spacing:-0.4px;" data-final-font-size="31">
        <tspan x="0.0" dy="30.52px">Retrospective Narrative</tspan>
      </text>
      <rect id="ITEM_2_HEAD_FRAME" x="0" y="-10" width="846" height="44" fill="none"/>
      <text id="ITEM_2_BODY" text-anchor="start" font-size="24" fill="var(--primary-text)" x="0.0" y="24.0" data-bg-id="ITEM_2_BG" style="font-size: 23px; font-family: 'Segoe UI Variable Text', 'Aptos', 'Inter', 'Segoe UI', Helvetica, Arial, sans-serif; font-weight: 400; font-kerning: normal; font-feature-settings: &quot;kern&quot; 1, &quot;liga&quot; 1;" data-final-font-size="23">
        <tspan x="0.0" dy="29.91px">Descriptions evolved as witnesses recounted the experience repeatedly</tspan>
      </text>
      <rect id="ITEM_2_BODY_FRAME" x="0" y="24" width="846" height="84" fill="none"/>
    </g>
  </g>
  <g transform="translate(960.0, 660.0)">
    <rect id="ITEM_3_BG" x="-600" y="-72" width="1200" height="176" rx="24" fill="var(--semantic-uncertain)" stroke="var(--accent-3)" filter="url(#svg9cd19821-shadow)" stroke-width="3" fill-opacity="0.4"/>
    <g transform="translate(-480.0, 0.0)">
      <circle r="60" fill="var(--background)" opacity="0.3"/>
      <circle id="ITEM_3_PAD" cx="0" cy="0" r="50" fill="var(--icon-pad-bg)" stroke="var(--semantic-uncertain)" opacity="1" fill-opacity="0.9" stroke-width="2" stroke-opacity="0.72" data-badge-layer="pad"/>
      <circle id="ITEM_3_PAD_INNER" cx="0" cy="0" r="39.00" fill="var(--semantic-uncertain)" fill-opacity="0.12" stroke="none" data-badge-layer="tint"/>
      <circle cx="0" cy="0" r="40" fill="none" stroke="var(--accent-2)" stroke-width="3" stroke-dasharray="6 4" display="none" data-suppressed-decoration="redundant-badge-ring"/>
      <g id="ITEM_3_ICON" transform="translate(-39, -39)" data-icon-size="78" stroke-linecap="round" stroke-linejoin="round" data-badge-treatment="clean">
        <g transform="translate(-3.451327433628318,-3.106194690265486) scale(2.7610619469026547)">
          <path d="M14.14 2C14.14 1.58579 13.8042 1.25 13.39 1.25C12.9758 1.25 12.64 1.58579 12.64 2V6C12.64 6.41421 12.9758 6.75 13.39 6.75C13.8042 6.75 14.14 6.41421 14.14 6V2Z" fill="#F9C23C"/>
          <path d="M5.58032 4.12964C5.28742 3.83675 4.81255 3.83675 4.51966 4.12964C4.22676 4.42254 4.22676 4.89741 4.51966 5.1903L7.62966 8.3003C7.92255 8.5932 8.39742 8.5932 8.69032 8.3003C8.98321 8.00741 8.98321 7.53254 8.69032 7.23964L5.58032 4.12964Z" fill="#F9C23C"/>
          <path d="M1.25 13.14C1.25 12.7258 1.58579 12.39 2 12.39H5.89C6.30421 12.39 6.64 12.7258 6.64 13.14C6.64 13.5542 6.30421 13.89 5.89 13.89H2C1.58579 13.89 1.25 13.5542 1.25 13.14Z" fill="#F9C23C"/>
          <path d="M17.0866 7.05107C17.9184 7.88288 16.4179 10.7321 13.735 13.415C11.0521 16.0979 8.20289 17.5984 7.37108 16.7666C6.53927 15.9348 8.03986 13.0856 10.7227 10.4027C13.4056 7.71985 16.2548 6.21927 17.0866 7.05107Z" fill="#F9C23C"/>
          <path d="M20.6699 14.69L28.0899 22.11C29.6799 23.7 29.6699 26.3 28.0599 27.91C26.4499 29.52 23.8499 29.53 22.2599 27.94L14.7099 20.39C12.7199 20.61 10.6499 19.97 9.12988 18.44L12.8199 12.5L18.7599 8.81C20.3699 10.42 20.9999 12.62 20.6699 14.69Z" fill="#B4ACBC"/>
          <path d="M7.05986 17.72L7.91986 18.58C8.26986 18.93 8.84986 18.93 9.19986 18.58L18.8999 8.87999C19.2499 8.52999 19.2499 7.94999 18.8999 7.59999L18.0399 6.74999C17.6899 6.39999 17.1099 6.39999 16.7599 6.74999L7.05986 16.45C6.70986 16.8 6.70986 17.37 7.05986 17.72Z" fill="#321B41"/>
          <path d="M18.2302 19.09L19.4402 20.3C19.7502 20.61 20.2702 20.61 20.5802 20.3L20.6102 20.27C20.9202 19.96 20.9202 19.44 20.6102 19.13L19.4002 17.92C19.0902 17.61 18.5702 17.61 18.2602 17.92L18.2302 17.95C17.9102 18.26 17.9102 18.77 18.2302 19.09Z" fill="#F4F4F4"/>
        </g>
      </g>
    </g>
    <g transform="translate(-330, -36)">
      <text id="ITEM_3_HEAD" text-anchor="start" font-weight="bold" font-size="34" fill="var(--primary-text)" x="0.0" y="-10.0" data-bg-id="ITEM_3_BG" fill-opacity="1.0" stroke="none" style="font-size: 31px; font-family: 'Segoe UI Variable Display', 'Aptos Display', 'Inter', 'Segoe UI', Helvetica, Arial, sans-serif; font-weight: 700; font-kerning: normal; font-feature-settings: &quot;kern&quot; 1, &quot;liga&quot; 1; letter-spacing:-0.4px;" data-final-font-size="31">
        <tspan x="0.0" dy="30.52px">Visual Merging</tspan>
      </text>
      <rect id="ITEM_3_HEAD_FRAME" x="0" y="-10" width="846" height="44" fill="none"/>
      <text id="ITEM_3_BODY" text-anchor="start" font-size="24" fill="var(--primary-text)" x="0.0" y="24.0" data-bg-id="ITEM_3_BG" style="font-size: 23px; font-family: 'Segoe UI Variable Text', 'Aptos', 'Inter', 'Segoe UI', Helvetica, Arial, sans-serif; font-weight: 400; font-kerning: normal; font-feature-settings: &quot;kern&quot; 1, &quot;liga&quot; 1;" data-final-font-size="23">
        <tspan x="0.0" dy="29.91px">Original light and heat reports merged into visible flames</tspan>
      </text>
      <rect id="ITEM_3_BODY_FRAME" x="0" y="24" width="846" height="84" fill="none"/>
    </g>
  </g>
  <g transform="translate(960.0, 855.0)">
    <rect id="ITEM_4_BG" x="-600" y="-72" width="1200" height="176" rx="24" fill="var(--semantic-evidence)" stroke="var(--accent-4)" filter="url(#svg9cd19821-shadow)" stroke-width="3" fill-opacity="0.4"/>
    <g transform="translate(-480.0, 0.0)">
      <circle r="60" fill="var(--background)" opacity="0.3"/>
      <circle id="ITEM_4_PAD" cx="0" cy="0" r="50" fill="var(--icon-pad-bg)" stroke="var(--semantic-evidence)" opacity="1" fill-opacity="0.9" stroke-width="2" stroke-opacity="0.72" data-badge-layer="pad"/>
      <circle id="ITEM_4_PAD_INNER" cx="0" cy="0" r="39.00" fill="var(--semantic-evidence)" fill-opacity="0.12" stroke="none" data-badge-layer="tint"/>
      <circle cx="0" cy="0" r="40" fill="none" stroke="var(--accent-3)" stroke-width="3" stroke-dasharray="6 4" display="none" data-suppressed-decoration="redundant-badge-ring"/>
      <g id="ITEM_4_ICON" transform="translate(-39, -39)" data-icon-size="78" stroke-linecap="round" stroke-linejoin="round" data-badge-treatment="clean">
        <g transform="translate(-3.305084745762712,-3.305084745762712) scale(3.5254237288135593)" vector-effect="non-scaling-stroke" stroke-width="2.65" stroke-linecap="round" stroke-linejoin="round" stroke-opacity="1.0">
          <path d="m2 2 20 20" vector-effect="non-scaling-stroke" fill="none" stroke="#f1f5f9"/>
          <path d="M8.35 2.69A10 10 0 0 1 21.3 15.65" vector-effect="non-scaling-stroke" fill="none" stroke="#f1f5f9"/>
          <path d="M19.08 19.08A10 10 0 1 1 4.92 4.92" vector-effect="non-scaling-stroke" fill="none" stroke="#f1f5f9"/>
        </g>
      </g>
    </g>
    <g transform="translate(-330, -36)">
      <text id="ITEM_4_HEAD" text-anchor="start" font-weight="bold" font-size="34" fill="var(--primary-text)" x="0.0" y="-10.0" data-bg-id="ITEM_4_BG" fill-opacity="1.0" stroke="none" style="font-size: 31px; font-family: 'Segoe UI Variable Display', 'Aptos Display', 'Inter', 'Segoe UI', Helvetica, Arial, sans-serif; font-weight: 700; font-kerning: normal; font-feature-settings: &quot;kern&quot; 1, &quot;liga&quot; 1; letter-spacing:-0.4px;" data-final-font-size="31">
        <tspan x="0.0" dy="30.52px">Lack of Independent Data</tspan>
      </text>
      <rect id="ITEM_4_HEAD_FRAME" x="0" y="-10" width="846" height="44" fill="none"/>
      <text id="ITEM_4_BODY" text-anchor="start" font-size="24" fill="var(--primary-text)" x="0.0" y="24.0" data-bg-id="ITEM_4_BG" style="font-size: 23px; font-family: 'Segoe UI Variable Text', 'Aptos', 'Inter', 'Segoe UI', Helvetica, Arial, sans-serif; font-weight: 400; font-kerning: normal; font-feature-settings: &quot;kern&quot; 1, &quot;liga&quot; 1;" data-final-font-size="23">
        <tspan x="0.0" dy="29.91px">Absence of record ings forces reliance on subjective witness testimony</tspan>
      </text>
      <rect id="ITEM_4_BODY_FRAME" x="0" y="24" width="846" height="84" fill="none"/>
    </g>
  </g>
  <text id="SOURCE_NOTE" x="134.0" y="1058.0" fill="var(--muted-text)" opacity="1" style="font-family: var(--font-family); font-size: 20px;">Source: Cash–Landrum incident</text>
  <text id="EDITORIAL_NOTE" x="1786.0" y="1058.0" fill="var(--semantic-uncertain)" opacity="1" style="font-family: var(--font-family); font-size: 20px;" text-anchor="end">Interpretations remain disputed; wording reflects source uncertainty.</text>
</svg>
